<svg xmlns="http://www.w3.org/2000/svg" viewBox="0 0 3840 640" width="3840" height="640">
    <!-- house -->
    <g transform="translate(0, 0)">
        <path fill="#ffffff" d="M341.8 72.6C329.5 61.2 310.5 61.2 298.3 72.6L74.3 280.6C64.7 289.6 61.5 303.5 66.3 315.7C71.1 327.9 82.8 336 96 336L112 336L112 512C112 547.3 140.7 576 176 576L464 576C499.3 576 528 547.3 528 512L528 336L544 336C557.2 336 569 327.9 573.8 315.7C578.6 303.5 575.4 289.5 565.8 280.6L341.8 72.6zM304 384L336 384C362.5 384 384 405.5 384 432L384 528L256 528L256 432C256 405.5 277.5 384 304 384z"/>
    </g>
    <!-- file -->
    <g transform="translate(640, 0)">
        <path fill="#ffffff" d="M192 64C156.7 64 128 92.7 128 128L128 512C128 547.3 156.7 576 192 576L448 576C483.3 576 512 547.3 512 512L512 234.5C512 217.5 505.3 201.2 493.3 189.2L386.7 82.7C374.7 70.7 358.5 64 341.5 64L192 64zM453.5 240L360 240C346.7 240 336 229.3 336 216L336 122.5L453.5 240z"/>
    </g>
    <!-- image -->
    <g transform="translate(1280, 0)">
        <path fill="#ffffff" d="M160 96C124.7 96 96 124.7 96 160L96 480C96 515.3 124.7 544 160 544L480 544C515.3 544 544 515.3 544 480L544 160C544 124.7 515.3 96 480 96L160 96zM224 176C250.5 176 272 197.5 272 224C272 250.5 250.5 272 224 272C197.5 272 176 250.5 176 224C176 197.5 197.5 176 224 176zM368 288C376.4 288 384.1 292.4 388.5 299.5L476.5 443.5C481 450.9 481.2 460.2 477 467.8C472.8 475.4 464.7 480 456 480L184 480C175.1 480 166.8 475 162.7 467.1C158.6 459.2 159.2 449.6 164.3 442.3L220.3 362.3C224.8 355.9 232.1 352.1 240 352.1C247.9 352.1 255.2 355.9 259.7 362.3L286.1 400.1L347.5 299.6C351.9 292.5 359.6 288.1 368 288.1z"/>
    </g>
    <!-- chart-line -->
    <g transform="translate(1920, 0)">
        <path fill="#ffffff" d="M128 128C128 110.3 113.7 96 96 96C78.3 96 64 110.3 64 128L64 464C64 508.2 99.8 544 144 544L544 544C561.7 544 576 529.7 576 512C576 494.3 561.7 480 544 480L144 480C135.2 480 128 472.8 128 464L128 128zM534.6 214.6C547.1 202.1 547.1 181.8 534.6 169.3C522.1 156.8 501.8 156.8 489.3 169.3L384 274.7L326.6 217.4C314.1 204.9 293.8 204.9 281.3 217.4L185.3 313.4C172.8 325.9 172.8 346.2 185.3 358.7C197.8 371.2 218.1 371.2 230.6 358.7L304 285.3L361.4 342.7C373.9 355.2 394.2 355.2 406.7 342.7L534.7 214.7z"/>
    </g>
    <!-- table -->
    <g transform="translate(2560, 0)">
        <path fill="#ffffff" d="M480 96C515.3 96 544 124.7 544 160L544 480C544 515.3 515.3 544 480 544L160 544L153.5 543.7C121.2 540.4 96 513.1 96 480L96 160C96 124.7 124.7 96 160 96L480 96zM160 384L160 480L288 480L288 384L160 384zM352 384L352 480L480 480L480 384L352 384zM160 320L288 320L288 224L160 224L160 320zM352 320L480 320L480 224L352 224L352 320z"/>
    </g>
    <!-- envelope -->
    <g transform="translate(3200, 0)">
        <path fill="#ffffff" d="M112 128C85.5 128 64 149.5 64 176C64 191.1 71.1 205.3 83.2 214.4L291.2 370.4C308.3 383.2 331.7 383.2 348.8 370.4L556.8 214.4C568.9 205.3 576 191.1 576 176C576 149.5 554.5 128 528 128L112 128zM64 260L64 448C64 483.3 92.7 512 128 512L512 512C547.3 512 576 483.3 576 448L576 260L377.6 408.8C343.5 434.4 296.5 434.4 262.4 408.8L64 260z"/>
    </g>
</svg>